<svg id="visual" viewBox="0 0 960 540" width="960" height="540" xmlns="http://www.w3.org/2000/svg" xmlns:xlink="http://www.w3.org/1999/xlink" version="1.1"><rect x="0" y="0" width="960" height="540" fill="#FF6F61"></rect><defs><linearGradient id="grad1_0" x1="43.8%" y1="0%" x2="100%" y2="100%"><stop offset="14.444444444444446%" stop-color="#ff6f61" stop-opacity="1"></stop><stop offset="85.55555555555554%" stop-color="#ff6f61" stop-opacity="1"></stop></linearGradient></defs><defs><linearGradient id="grad2_0" x1="0%" y1="0%" x2="56.3%" y2="100%"><stop offset="14.444444444444446%" stop-color="#ff6f61" stop-opacity="1"></stop><stop offset="85.55555555555554%" stop-color="#ff6f61" stop-opacity="1"></stop></linearGradient></defs><g transform="translate(960, 0)"><path d="M0 486C-35 440.3 -70 394.6 -99.1 369.9C-128.3 345.3 -151.7 341.6 -201.5 349C-251.3 356.4 -327.6 374.9 -343.7 343.7C-359.7 312.4 -315.5 231.4 -328.2 189.5C-340.9 147.6 -410.5 144.7 -446.3 119.6C-482 94.5 -484 47.2 -486 0L0 0Z" fill="#001122"></path></g><g transform="translate(0, 540)"><path d="M0 -486C34.6 -440.8 69.2 -395.7 99.9 -372.8C130.7 -350 157.6 -349.5 205 -355.1C252.4 -360.6 320.3 -372.2 343.7 -343.7C367 -315.1 345.8 -246.4 351.6 -203C357.5 -159.6 390.4 -141.4 417.3 -111.8C444.2 -82.2 465.1 -41.1 486 0L0 0Z" fill="#001122"></path></g></svg>